<svg width="147" height="34" viewBox="0 0 147 34" fill="none" xmlns="http://www.w3.org/2000/svg">
<path opacity="0.9" d="M15.3577 3.02491L31.2104 14.5426C34.1997 16.7144 34.8402 20.9289 32.6687 23.9184L16.8246 12.3727C13.8412 10.1986 13.1879 6.0114 15.3577 3.02491Z" fill="url(#paint0_linear_3_25)"/>
<g opacity="0.9" filter="url(#filter0_d_3_25)">
<path d="M9.74701 9.41761L28.3783 15.4713C31.8943 16.6137 33.8134 20.4032 32.6688 23.9184L14.0373 17.8513C10.5253 16.7076 8.60565 12.9303 9.74701 9.41761Z" fill="url(#paint1_linear_3_25)"/>
<path d="M9.74701 9.41761L28.3783 15.4713C31.8943 16.6137 33.8134 20.4032 32.6688 23.9184L14.0373 17.8513C10.5253 16.7076 8.60565 12.9303 9.74701 9.41761Z" fill="url(#paint2_linear_3_25)"/>
</g>
<g opacity="0.9" filter="url(#filter1_d_3_25)">
<path d="M6.40552 17.2626H26.0058C29.6942 17.2626 32.6808 20.259 32.6687 23.9474L13.0963 23.9518C9.40133 23.9527 6.40552 20.9575 6.40552 17.2626Z" fill="url(#paint3_linear_3_25)"/>
</g>
<path d="M117.394 24.0026C115.964 24.0026 114.715 23.7166 113.646 23.1446C112.592 22.5576 111.78 21.7297 111.208 20.661C110.636 19.5922 110.35 18.3429 110.35 16.9129C110.35 15.4829 110.628 14.2486 111.185 13.21C111.757 12.1564 112.562 11.3435 113.601 10.7715C114.64 10.1995 115.866 9.91355 117.281 9.91355C118.636 9.91355 119.802 10.1845 120.781 10.7264C121.759 11.2532 122.512 12.0134 123.039 13.0068C123.581 13.9852 123.852 15.1518 123.852 16.5065V17.6354H113.285C113.405 18.8697 113.819 19.8256 114.527 20.5029C115.234 21.1652 116.182 21.4964 117.372 21.4964C118.245 21.4964 118.96 21.3308 119.516 20.9996C120.073 20.6685 120.457 20.1718 120.668 19.5095H123.784C123.453 20.9244 122.723 22.0307 121.594 22.8285C120.48 23.6112 119.08 24.0026 117.394 24.0026ZM113.375 15.4905H120.916C120.796 14.497 120.42 13.7369 119.787 13.21C119.155 12.6681 118.32 12.3972 117.281 12.3972C116.243 12.3972 115.385 12.6681 114.707 13.21C114.03 13.7369 113.586 14.497 113.375 15.4905Z" fill="#3F1487" stroke="#3F1487" stroke-width="0.18644"/>
<path d="M104.754 23.7316C103.926 23.7316 103.279 23.5209 102.812 23.0994C102.361 22.678 102.135 22.0383 102.135 21.1803V12.5778H99.6964V10.1845H102.157V6.12035H105.183V10.1845H108.547V12.5778H105.206V21.3157H108.886V23.7316H104.754Z" fill="#3F1487" stroke="#3F1487" stroke-width="0.18644"/>
<path d="M89.5004 23.98C87.95 23.98 86.7232 23.5962 85.8201 22.8285C84.932 22.0608 84.4879 21.0523 84.4879 19.803C84.4879 18.4934 84.9395 17.4774 85.8427 16.7549C86.7458 16.0323 88.0403 15.6711 89.7262 15.6711H94.0161V15.1066C94.0161 13.3003 92.9925 12.3972 90.9454 12.3972C89.2144 12.3972 88.1758 13.0219 87.8296 14.2712H84.7589C85.0148 12.8713 85.6771 11.7951 86.7458 11.0425C87.8296 10.2899 89.237 9.91355 90.968 9.91355C92.9098 9.91355 94.3924 10.3651 95.416 11.2683C96.4395 12.1564 96.9513 13.4509 96.9513 15.1518V20.6384H98.4189V23.7316H95.2353V21.5867H94.2871C93.8204 22.3393 93.1882 22.9263 92.3905 23.3478C91.5927 23.7693 90.6293 23.98 89.5004 23.98ZM89.952 21.5867C90.7196 21.5867 91.412 21.4362 92.0292 21.1351C92.6463 20.8341 93.128 20.4352 93.4742 19.9384C93.8355 19.4267 94.0161 18.8622 94.0161 18.245V17.8161H89.8842C88.2285 17.8161 87.4006 18.4332 87.4006 19.6675C87.4006 20.2696 87.6264 20.7437 88.0779 21.09C88.5295 21.4211 89.1542 21.5867 89.952 21.5867Z" fill="#3F1487" stroke="#3F1487" stroke-width="0.18644"/>
<path d="M68.866 23.7316V13.2778H67.3081V10.1845H70.5142V12.3295H71.4625C71.9442 11.5618 72.5839 10.9747 73.3817 10.5683C74.1945 10.1469 75.1729 9.93613 76.3169 9.93613C78.1232 9.93613 79.5306 10.4479 80.5391 11.4715C81.5627 12.48 82.0745 13.8347 82.0745 15.5356V23.7316H79.0038V16.0775C79.0038 14.9636 78.7027 14.1132 78.1006 13.5261C77.5136 12.9391 76.6405 12.6456 75.4815 12.6456C74.3225 12.6456 73.4419 12.9391 72.8398 13.5261C72.2377 14.1132 71.9367 14.9636 71.9367 16.0775V23.7316H68.866Z" fill="#3F1487" stroke="#3F1487" stroke-width="0.18644"/>
<path d="M59.0513 24.0026C57.6214 24.0026 56.372 23.7166 55.3033 23.1446C54.2496 22.5576 53.4368 21.7297 52.8648 20.661C52.2928 19.5922 52.0068 18.3429 52.0068 16.9129C52.0068 15.4829 52.2853 14.2486 52.8422 13.21C53.4142 12.1564 54.2195 11.3435 55.2581 10.7715C56.2968 10.1995 57.5235 9.91355 58.9385 9.91355C60.2932 9.91355 61.4597 10.1845 62.4381 10.7264C63.4165 11.2532 64.1692 12.0134 64.696 13.0068C65.2379 13.9852 65.5088 15.1518 65.5088 16.5065V17.6354H54.942C55.0625 18.8697 55.4764 19.8256 56.1839 20.5029C56.8913 21.1652 57.8396 21.4964 59.0288 21.4964C59.9018 21.4964 60.6168 21.3308 61.1737 20.9996C61.7307 20.6685 62.1145 20.1718 62.3252 19.5095H65.4411C65.1099 20.9244 64.3799 22.0307 63.251 22.8285C62.1371 23.6112 60.7372 24.0026 59.0513 24.0026ZM55.0324 15.4905H62.5736C62.4532 14.497 62.0769 13.7369 61.4447 13.21C60.8125 12.6681 59.9771 12.3972 58.9385 12.3972C57.8998 12.3972 57.0418 12.6681 56.3645 13.21C55.6871 13.7369 55.2431 14.497 55.0324 15.4905Z" fill="#3F1487" stroke="#3F1487" stroke-width="0.18644"/>
<path d="M43.0558 23.7316V13.2778H41.4979V10.1845H44.7041V12.781H45.6524C46.0136 11.8929 46.5856 11.2156 47.3684 10.749C48.1661 10.2823 49.0768 10.049 50.1004 10.049H51.2293V12.6907H49.9649C48.6854 12.6907 47.7146 13.0595 47.0523 13.7971C46.405 14.5346 46.0814 15.5206 46.0814 16.7549V23.7316H43.0558Z" fill="#3F1487" stroke="#3F1487" stroke-width="0.18644"/>
<path d="M144.208 23.7549V10.2472H146.73V23.7549H144.208ZM145.469 8.4012C145.049 8.4012 144.689 8.25111 144.389 7.95094C144.088 7.65078 143.938 7.29057 143.938 6.87034C143.938 6.4501 144.088 6.0899 144.389 5.78973C144.689 5.48956 145.049 5.33947 145.469 5.33947C145.889 5.33947 146.25 5.48956 146.55 5.78973C146.85 6.0899 147 6.4501 147 6.87034C147 7.29057 146.85 7.65078 146.55 7.95094C146.25 8.25111 145.889 8.4012 145.469 8.4012Z" fill="#9156EC"/>
<path d="M133.266 24.0026C131.735 24.0026 130.527 23.6273 129.642 22.8769C128.771 22.1115 128.336 21.1134 128.336 19.8827C128.336 18.592 128.771 17.5939 129.642 16.8885C130.512 16.1681 131.766 15.8079 133.401 15.8079H138.017V15.2001C138.017 13.1139 136.868 12.0708 134.572 12.0708C132.696 12.0708 131.563 12.7762 131.173 14.187H128.629C128.854 12.8513 129.492 11.8157 130.542 11.0803C131.608 10.3449 132.966 9.97715 134.617 9.97715C136.493 9.97715 137.926 10.4199 138.917 11.3054C139.923 12.1909 140.425 13.4666 140.425 15.1326V21.1434H141.641V23.7549H138.94V21.6837H137.994C137.529 22.4042 136.891 22.9745 136.08 23.3947C135.27 23.7999 134.332 24.0026 133.266 24.0026ZM133.604 21.9764C134.415 21.9764 135.157 21.8113 135.833 21.4811C136.508 21.1509 137.041 20.7007 137.431 20.1304C137.821 19.56 138.017 18.9372 138.017 18.2618V17.654H133.559C131.668 17.654 130.722 18.3594 130.722 19.7702C130.722 20.4455 130.978 20.9859 131.488 21.3911C131.998 21.7813 132.704 21.9764 133.604 21.9764Z" fill="#9156EC"/>
<defs>
<filter id="filter0_d_3_25" x="-9.55811e-06" y="1.91162e-06" width="42.4174" height="33.336" filterUnits="userSpaceOnUse" color-interpolation-filters="sRGB">
<feFlood flood-opacity="0" result="BackgroundImageFix"/>
<feColorMatrix in="SourceAlpha" type="matrix" values="0 0 0 0 0 0 0 0 0 0 0 0 0 0 0 0 0 0 127 0" result="hardAlpha"/>
<feOffset/>
<feGaussianBlur stdDeviation="4.69828"/>
<feComposite in2="hardAlpha" operator="out"/>
<feColorMatrix type="matrix" values="0 0 0 0 1 0 0 0 0 1 0 0 0 0 1 0 0 0 1 0"/>
<feBlend mode="normal" in2="BackgroundImageFix" result="effect1_dropShadow_3_25"/>
<feBlend mode="normal" in="SourceGraphic" in2="effect1_dropShadow_3_25" result="shape"/>
</filter>
<filter id="filter1_d_3_25" x="1.02403" y="11.8811" width="37.0262" height="17.4523" filterUnits="userSpaceOnUse" color-interpolation-filters="sRGB">
<feFlood flood-opacity="0" result="BackgroundImageFix"/>
<feColorMatrix in="SourceAlpha" type="matrix" values="0 0 0 0 0 0 0 0 0 0 0 0 0 0 0 0 0 0 127 0" result="hardAlpha"/>
<feOffset/>
<feGaussianBlur stdDeviation="2.68473"/>
<feComposite in2="hardAlpha" operator="out"/>
<feColorMatrix type="matrix" values="0 0 0 0 1 0 0 0 0 1 0 0 0 0 1 0 0 0 1 0"/>
<feBlend mode="normal" in2="BackgroundImageFix" result="effect1_dropShadow_3_25"/>
<feBlend mode="normal" in="SourceGraphic" in2="effect1_dropShadow_3_25" result="shape"/>
</filter>
<linearGradient id="paint0_linear_3_25" x1="15.331" y1="3.42202" x2="10.8215" y2="15.1406" gradientUnits="userSpaceOnUse">
<stop stop-color="#A974FF"/>
<stop offset="1" stop-color="#401583"/>
</linearGradient>
<linearGradient id="paint1_linear_3_25" x1="14.6877" y1="11.091" x2="32.7365" y2="23.8588" gradientUnits="userSpaceOnUse">
<stop stop-color="#111040"/>
<stop offset="1" stop-color="#111040" stop-opacity="0.08"/>
</linearGradient>
<linearGradient id="paint2_linear_3_25" x1="9.84484" y1="9.80195" x2="9.30126" y2="22.6397" gradientUnits="userSpaceOnUse">
<stop stop-color="#A974FF"/>
<stop offset="1" stop-color="#401583"/>
</linearGradient>
<linearGradient id="paint3_linear_3_25" x1="6.61733" y1="17.5979" x2="10.0675" y2="29.9753" gradientUnits="userSpaceOnUse">
<stop stop-color="#A974FF"/>
<stop offset="1" stop-color="#401583"/>
</linearGradient>
</defs>
</svg>
